<?xml version="1.0" encoding="utf-8"?>
<!-- Generator: Adobe Illustrator 17.1.0, SVG Export Plug-In . SVG Version: 6.00 Build 0)  -->
<!DOCTYPE svg PUBLIC "-//W3C//DTD SVG 1.1//EN" "http://www.w3.org/Graphics/SVG/1.1/DTD/svg11.dtd">
<svg version="1.1" id="Layer_1" xmlns="http://www.w3.org/2000/svg" xmlns:xlink="http://www.w3.org/1999/xlink" x="0px" y="0px"
	 viewBox="0 0 81.3 50" enable-background="new 0 0 81.3 50" xml:space="preserve">
<g>
	<g>
		<path fill="#FFFFFF" d="M24,21.1c0-4.2,1.5-7.8,3.8-9.7c-1.3-1.5-2.8-2.5-4.8-2.5l0,0c-4.2,0-7.5,5.2-7.5,11.7
			c0,6.4,3.4,11.7,7.5,11.7l1.4-0.1c1.1-0.3,2-0.9,2.9-1.7C25.2,28.4,24,24.9,24,21.1z"/>
		<path fill="#ED1C24" d="M33.9,23h-2.7c0.1,4-0.9,6.1-2.6,7.8c-0.1,0.1-1.9,1.7-2.9,2c-0.4,0.1-0.8,0.3-1.3,0.3h2.6h5.1
			c1.9,0,3.9-1.2,5.4-2.9C36.2,28.3,35,26,33.9,23z"/>
		<path fill="#ED1C24" d="M33.7,20.4c2.2,5.8,5,11.8,9.1,11.9c2.2,0,4.1-1.7,5.9-4c-1.4-2.2-2.6-4.9-3.6-7.5
			c-2.2-5.5-4.6-11.8-9.7-11.9L26,8.7C29.8,9.8,31.9,15.5,33.7,20.4z"/>
		<path fill="#FFFFFF" d="M75.7,2h-9.4c-4.4,0-7.7,6.7-11.5,15.6c-0.2,0.5-0.4,0.9-0.7,1.4C51.8,24.5,48.7,32,44.5,33h0.6h8.6
			c4.9,0,8.4-8.1,10.9-14.1c0.2-0.5,0.5-0.9,0.7-1.4C68.8,9.5,71.9,3,75.7,2z"/>
	</g>
	<g>
		<g>
			<path fill="#ED1C24" d="M8.2,45.5H6.5c0-0.3-0.2-0.9-0.5-1.9H3.5c-0.3,1-0.5,1.7-0.5,1.9H1.3c0-0.1,0.4-1.3,1.3-3.3
				c0.8-2.1,1.3-3.3,1.3-3.5h2c0,0.2,0.4,1.3,1.1,3.4C7.8,44.2,8.2,45.3,8.2,45.5z M5.7,42.6c-0.6-1.8-0.9-2.8-0.9-2.9H4.7
				c0,0.1-0.3,1.1-0.9,2.9H5.7z"/>
			<path fill="#ED1C24" d="M13.8,43.4c0,1.4-1.2,2.1-3.5,2.1c-0.4,0-1.1,0-1.9-0.1c0.1-1.1,0.1-2.3,0.1-3.6c0-1.3,0-2.3-0.1-3.3h0.9
				c0.2,0,0.4,0,0.8,0c0.4,0,0.7,0,0.9,0c1.6,0,2.4,0.5,2.4,1.5c0,0.8-0.4,1.3-1.2,1.5v0.1c0.4,0.1,0.8,0.3,1.1,0.5
				C13.7,42.6,13.8,42.9,13.8,43.4z M12,40.6c0-0.6-0.4-0.9-1.2-0.9c-0.4,0-0.7,0-1,0.1c0.1,0.4,0.1,0.9,0.1,1.8c0.1,0,0.3,0,0.4,0
				C11.4,41.6,12,41.2,12,40.6z M12.4,43.5c0-0.7-0.6-1.1-1.9-1.1c-0.3,0-0.4,0-0.6,0c0,0.8,0,1.4,0.1,2c0.1,0,0.3,0.1,0.6,0.1
				c0.7,0,1.1-0.1,1.4-0.3C12.3,44.1,12.4,43.9,12.4,43.5z"/>
			<g>
				<g>
					<path fill="#FFFFFF" d="M22.9,45.5h-1.4c0-0.6,0-3.7,0-4h-0.1c-0.1,0.3-1,2.9-1.3,4h-1c0,0-0.4-1.1-0.6-1.9
						c-0.3-0.8-0.6-1.4-0.7-2.1h-0.1c0,0.3,0,0.9-0.1,1.9c-0.1,1-0.1,1.7-0.1,2.1h-1.3c0-0.1,0.3-5,0.3-5h1.9c0,0.4,1.1,3.8,1.1,3.8
						h0.1c0.1-0.2,1.1-3.4,1.1-3.8h1.9L22.9,45.5z"/>
				</g>
			</g>
			<g>
				<g>
					<path fill="#FFFFFF" d="M28.5,42.5c0,0.2,0,0.4-0.1,0.7L25,43.3c0.1,0.4,0.3,0.7,0.5,1c0.3,0.3,0.7,0.4,1.2,0.4
						c0.6,0,1.1-0.1,1.7-0.3l-0.1,1c-0.5,0.2-1.1,0.3-1.8,0.3c-0.9,0-1.6-0.3-2.1-0.8c-0.5-0.5-0.8-1.1-0.8-1.8
						c0-0.8,0.3-1.4,0.7-1.9c0.4-0.6,1.1-0.8,1.9-0.8c0.8,0,1.3,0.2,1.7,0.6C28.3,41.3,28.5,41.9,28.5,42.5z M27.2,42.4
						c0-0.8-0.4-1.2-1.1-1.2c-0.7,0-1.1,0.4-1.2,1.3L27.2,42.4z"/>
				</g>
			</g>
			<g>
				<g>
					<path fill="#FFFFFF" d="M33.5,40.6l-0.1,1.1c-0.5-0.1-1.1-0.1-1.6-0.1c0,0.5,0,3.3,0.1,4h-1.4c0.1-0.7,0.1-3.5,0.1-4
						c-0.5,0-1.1,0-1.6,0.1l0.1-1.1L33.5,40.6L33.5,40.6z"/>
				</g>
			</g>
			<g>
				<g>
					<path fill="#FFFFFF" d="M38.7,45.5l-1.3,0.1c-0.1-0.1-0.1-0.3-0.1-0.4h-0.1c-0.4,0.3-1,0.4-1.7,0.4c-0.4,0-0.8-0.1-1.1-0.4
						c-0.3-0.3-0.4-0.6-0.4-0.9c0-0.5,0.3-0.9,0.7-1.3c0.4-0.3,1.3-0.5,2.5-0.6c0-0.1,0-0.1,0-0.2c0-0.4-0.1-0.6-0.3-0.8
						s-0.5-0.2-1-0.2c-0.6,0-1.1,0.1-1.6,0.2l0.1-0.9c0.5-0.2,1.2-0.3,2.1-0.3c0.6,0,1.1,0.1,1.5,0.4c0.4,0.3,0.5,0.8,0.5,1.4
						c0,0.1,0,0.4,0,0.8s0,0.6,0,0.8C38.5,44.4,38.6,45,38.7,45.5z M37.3,44.4c0-0.4-0.1-0.9-0.1-1.2c-1.2,0-1.8,0.3-1.8,0.9
						c0,0.4,0.3,0.6,0.8,0.6C36.6,44.7,37,44.6,37.3,44.4z"/>
				</g>
			</g>
			<g>
				<g>
					<path fill="#FFFFFF" d="M39.2,45.5c0.1-0.3,0.4-1.1,0.9-2.5c0.6-1.4,0.9-2.3,1.1-2.5h1.4c0.1,0.2,0.3,1.1,0.9,2.5
						c0.6,1.5,0.8,2.3,0.9,2.5h-1.6c-0.1-0.2-0.2-0.7-0.5-1.8c-0.3-1.1-0.5-1.6-0.5-1.9h-0.1c-0.1,0.2-0.3,0.8-0.6,1.8
						c-0.3,1-0.4,1.6-0.5,1.9H39.2z"/>
				</g>
			</g>
			<g>
				<g>
					<path fill="#FFFFFF" d="M44.7,45.5c0.1-0.3,0.4-1.1,0.9-2.5c0.6-1.4,0.9-2.3,1.1-2.5h1.4c0.1,0.2,0.3,1.1,0.9,2.5
						c0.6,1.5,0.8,2.3,0.9,2.5h-1.6c-0.1-0.2-0.2-0.7-0.5-1.8c-0.3-1.1-0.5-1.6-0.5-1.9h-0.1c-0.1,0.2-0.3,0.8-0.6,1.8
						c-0.3,1-0.4,1.6-0.5,1.9H44.7z"/>
				</g>
			</g>
			<g>
				<g>
					<path fill="#FFFFFF" d="M56.4,40.6v1.1c-0.3,0-1.1-0.1-2.4-0.1c0,0.7,0.1,3.2,0.1,4h-1.5c0.1-0.7,0.1-4.2,0-5L56.4,40.6
						L56.4,40.6z"/>
				</g>
			</g>
			<g>
				<path fill="#FFFFFF" d="M73.3,40.6h-4.8c0.1,0.8,0.1,4.2,0,5h1.4c-0.1-0.7-0.1-3.3-0.1-4c1.1,0,1.8,0.1,2.1,0.1
					c0,1.4,0,3.3-0.1,3.9h1.3C73.2,45,73.3,42.4,73.3,40.6z"/>
			</g>
			<g>
				<path fill="#FFFFFF" d="M79.3,40.6h-4.8c0.1,0.8,0.1,4.2,0,5H76c-0.1-0.7-0.1-3.3-0.1-4c1.1,0,1.8,0.1,2.1,0.1
					c0,1.4,0,3.3-0.1,3.9h1.3C79.3,45,79.4,42.4,79.3,40.6z"/>
			</g>
			<g>
				<g>
					<path fill="#FFFFFF" d="M62.5,42.8c0,0.8-0.3,1.4-0.7,2c-0.4,0.6-1.1,0.9-1.8,0.9c-0.6,0-0.9-0.1-1.2-0.4l-0.1-0.1l0.1,2.6
						h-1.4c0,0,0-2.2,0-3.5c0-1.7-0.1-3.1-0.2-3.8l1.4-0.1l0.1,0.5l0.1-0.1c0.4-0.3,0.9-0.5,1.5-0.5c0.7,0,1.3,0.3,1.6,0.8
						C62.3,41.6,62.5,42.1,62.5,42.8z M61.1,42.9c0-0.4-0.1-0.8-0.3-1.1c-0.3-0.3-0.6-0.5-0.9-0.5c-0.5,0-0.9,0.1-1.1,0.4
						c0,0.9,0,1.9,0.1,2.7c0.3,0.2,0.5,0.3,0.9,0.3c0.5,0,0.8-0.2,1.1-0.5C61,43.8,61.1,43.4,61.1,42.9z"/>
				</g>
			</g>
			<g>
				<g>
					<path fill="#FFFFFF" d="M67.7,40.6c0,0-1.6,4.4-1.8,5c-0.3,0.8-0.6,1.4-1,1.8c-0.4,0.3-0.9,0.5-1.7,0.5l-0.1-1
						c0.4,0,0.8-0.1,1.1-0.4c0.3-0.3,0.4-0.6,0.4-1s-0.3-1.3-0.9-2.7c-0.6-1.4-0.9-2.1-0.9-2.2h1.4l1.3,3.7c0,0,0.9-3.5,0.9-3.7
						L67.7,40.6z"/>
				</g>
			</g>
		</g>
	</g>
</g>
</svg>
